<svg width="8" height="10" viewBox="0 0 8 10" fill="none" xmlns="http://www.w3.org/2000/svg">
<path d="M7.47309 5.84825C7.43071 5.89175 7.2707 6.07775 7.12165 6.23075C6.24781 7.193 3.96822 8.768 2.77509 9.24875C2.59389 9.326 2.13578 9.4895 1.89101 9.5C1.65648 9.5 1.4329 9.446 1.21956 9.3365C0.953605 9.1835 0.740258 8.94275 0.623356 8.6585C0.5481 8.46125 0.431198 7.871 0.431198 7.8605C0.314296 7.21475 0.25 6.1655 0.25 5.006C0.25 3.90125 0.314296 2.89475 0.41001 2.23925C0.420969 2.22875 0.537871 1.49525 0.665733 1.244C0.900268 0.785 1.35838 0.5 1.84864 0.5H1.89101C2.2103 0.51125 2.88176 0.79625 2.88176 0.80675C4.01059 1.28825 6.23758 2.786 7.13261 3.78125C7.13261 3.78125 7.38468 4.037 7.49428 4.19675C7.66525 4.42625 7.75 4.7105 7.75 4.99475C7.75 5.312 7.65429 5.6075 7.47309 5.84825Z" fill="white"/>
</svg>
