<svg width="36" height="36" viewBox="0 0 36 36" fill="none" xmlns="http://www.w3.org/2000/svg">
<path fill-rule="evenodd" clip-rule="evenodd" d="M18 3C26.28 3 33 9.735 33 18C33 26.28 26.28 33 18 33C9.735 33 3 26.28 3 18C3 9.735 9.735 3 18 3ZM12 20.97C12.45 21.405 13.155 21.405 13.59 20.955L18 16.53L22.41 20.955C22.845 21.405 23.565 21.405 24 20.97C24.45 20.52 24.45 19.815 24 19.38L18.795 14.145C18.585 13.935 18.3 13.815 18 13.815C17.7 13.815 17.415 13.935 17.205 14.145L12 19.38C11.775 19.59 11.67 19.875 11.67 20.16C11.67 20.46 11.775 20.745 12 20.97Z" fill="#F89B32"/>
</svg>
