<svg width="36" height="36" viewBox="0 0 36 36" fill="none" xmlns="http://www.w3.org/2000/svg">
<path fill-rule="evenodd" clip-rule="evenodd" d="M18 33C9.72 33 3 26.265 3 18C3 9.72 9.72 3 18 3C26.265 3 33 9.72 33 18C33 26.265 26.265 33 18 33ZM24 15.03C23.55 14.595 22.845 14.595 22.41 15.045L18 19.47L13.59 15.045C13.155 14.595 12.435 14.595 12 15.03C11.55 15.48 11.55 16.185 12 16.62L17.205 21.855C17.415 22.065 17.7 22.185 18 22.185C18.3 22.185 18.585 22.065 18.795 21.855L24 16.62C24.225 16.41 24.33 16.125 24.33 15.84C24.33 15.54 24.225 15.255 24 15.03Z" fill="#015294"/>
</svg>
