<svg width="8" height="10" viewBox="0 0 8 10" fill="none" xmlns="http://www.w3.org/2000/svg">
<path d="M0.526912 4.15175C0.56929 4.10825 0.729299 3.92225 0.878349 3.76925C1.75219 2.807 4.03178 1.232 5.22492 0.75125C5.40611 0.674 5.86422 0.5105 6.10899 0.5C6.34352 0.5 6.5671 0.554 6.78044 0.6635C7.0464 0.816501 7.25974 1.05725 7.37664 1.3415C7.4519 1.53875 7.5688 2.129 7.5688 2.1395C7.6857 2.78525 7.75 3.8345 7.75 4.994C7.75 6.09875 7.6857 7.10525 7.58999 7.76075C7.57903 7.77125 7.46213 8.50475 7.33427 8.756C7.09973 9.215 6.64162 9.5 6.15136 9.5L6.10899 9.5C5.7897 9.48875 5.11824 9.20375 5.11824 9.19325C3.98941 8.71175 1.76242 7.214 0.86739 6.21875C0.86739 6.21875 0.615319 5.963 0.505723 5.80325C0.334754 5.57375 0.25 5.2895 0.25 5.00525C0.25 4.688 0.345714 4.3925 0.526912 4.15175Z" fill="#015294"/>
</svg>
