<svg width="24" height="24" viewBox="0 0 24 24" fill="none" xmlns="http://www.w3.org/2000/svg">
<path fill-rule="evenodd" clip-rule="evenodd" d="M23.0707 5.77539C22.6076 5.22893 21.9344 4.91463 21.2263 4.91463H8.69074C8.20775 4.91463 7.81576 5.31465 7.81576 5.80754C7.81576 6.30042 8.20775 6.70044 8.69074 6.70044H21.2263C21.5004 6.70044 21.6707 6.85283 21.7477 6.94331C21.8247 7.03498 21.9484 7.22904 21.9087 7.50525L20.8016 15.314C20.7141 15.9259 20.1914 16.3879 19.5848 16.3879H6.85562C6.21046 16.3879 5.68431 15.8938 5.63065 15.239L4.50717 1.58112C4.47451 1.17634 4.17702 0.844175 3.78503 0.775124L1.35725 0.345339C0.875431 0.266763 0.427443 0.587018 0.345778 1.07395C0.264113 1.55969 0.582605 2.02162 1.05859 2.10615L2.82022 2.41688L3.88652 15.3878C4.01719 16.976 5.29349 18.1737 6.85562 18.1737H19.5848C21.0559 18.1737 22.3229 17.0546 22.5329 15.57L23.6412 7.76121C23.7427 7.04451 23.5339 6.32185 23.0707 5.77539ZM4.89232 21.8644C4.89232 20.8703 5.68564 20.0607 6.65978 20.0607C7.63392 20.0607 8.42607 20.8703 8.42607 21.8644C8.42607 22.8585 7.63392 23.6669 6.65978 23.6669C5.68564 23.6669 4.89232 22.8585 4.89232 21.8644ZM18.0205 21.8644C18.0205 20.8703 18.8127 20.0607 19.7868 20.0607C20.761 20.0607 21.5543 20.8703 21.5543 21.8644C21.5543 22.8585 20.761 23.6669 19.7868 23.6669C18.8127 23.6669 18.0205 22.8585 18.0205 21.8644ZM18.5899 10.2085C18.5899 10.7013 18.1979 11.1014 17.7149 11.1014H14.4798C13.9957 11.1014 13.6049 10.7013 13.6049 10.2085C13.6049 9.71557 13.9957 9.31555 14.4798 9.31555H17.7149C18.1979 9.31555 18.5899 9.71557 18.5899 10.2085Z" fill="#015294"/>
</svg>
