<svg width="22" height="24" viewBox="0 0 22 24" fill="none" xmlns="http://www.w3.org/2000/svg">
<path d="M7.10937 23.0625C7.10937 23.5803 6.6897 24 6.17187 24H4.01562C1.94781 24 0.265625 22.3178 0.265625 20.25V3.75C0.265625 1.68219 1.94781 0 4.01562 0H15.5417C17.6094 0 19.2917 1.68219 19.2917 3.75V9.32812C19.2917 9.84595 18.8719 10.2656 18.3542 10.2656C17.8364 10.2656 17.4167 9.84595 17.4167 9.32812V3.75C17.4167 2.71619 16.5756 1.875 15.5417 1.875H4.01562C2.98181 1.875 2.14062 2.71619 2.14062 3.75V20.25C2.14062 21.2838 2.98181 22.125 4.01562 22.125H6.17187C6.6897 22.125 7.10937 22.5447 7.10937 23.0625ZM15.5416 6.5625C15.5416 6.04468 15.1219 5.625 14.6041 5.625H4.94781C4.43018 5.625 4.01031 6.04468 4.01031 6.5625C4.01031 7.08032 4.43018 7.5 4.94781 7.5H14.6041C15.1219 7.5 15.5416 7.08032 15.5416 6.5625ZM11.7969 10.3125C11.7969 9.79468 11.3772 9.375 10.8594 9.375H4.94781C4.43018 9.375 4.01031 9.79468 4.01031 10.3125C4.01031 10.8303 4.43018 11.25 4.94781 11.25H10.8594C11.3772 11.25 11.7969 10.8303 11.7969 10.3125ZM4.94781 13.125C4.43018 13.125 4.01031 13.5447 4.01031 14.0625C4.01031 14.5803 4.43018 15 4.94781 15H8.84375C9.36157 15 9.78125 14.5803 9.78125 14.0625C9.78125 13.5447 9.36157 13.125 8.84375 13.125H4.94781ZM21.3035 23.3026C20.9428 23.7458 20.4105 24 19.8431 24H10.6882C10.1176 24 9.58368 23.746 9.22333 23.3033C8.86078 22.8578 8.71997 22.279 8.83697 21.7154C9.13983 20.2564 9.94202 18.9289 11.0956 17.9773C11.5325 17.6169 12.0126 17.317 12.5216 17.0826C11.9543 16.4383 11.6094 15.594 11.6094 14.6702C11.6094 12.6541 13.2494 11.014 15.2656 11.014C17.2818 11.014 18.9219 12.6541 18.9219 14.6702C18.9219 15.594 18.5769 16.4383 18.0096 17.0826C18.5187 17.317 18.9988 17.6168 19.4357 17.9773C20.5662 18.9099 21.359 20.2035 21.6754 21.6279C21.6827 21.6526 21.689 21.6775 21.6943 21.7029C21.8118 22.2698 21.6694 22.8528 21.3035 23.3026ZM13.4844 14.6702C13.4844 15.6524 14.2834 16.4515 15.2656 16.4515C16.2478 16.4515 17.0469 15.6524 17.0469 14.6702C17.0469 13.688 16.2478 12.889 15.2656 12.889C14.2834 12.889 13.4844 13.688 13.4844 14.6702ZM19.8588 22.0984C19.8586 22.0979 19.8585 22.0972 19.8585 22.0966C19.4082 19.9285 17.4766 18.3547 15.2656 18.3547C13.0546 18.3547 11.1229 19.9285 10.6728 22.0966C10.6686 22.1177 10.683 22.1245 10.683 22.1246C10.6834 22.1246 10.6851 22.125 10.6882 22.125H19.8431C19.8436 22.1245 19.8563 22.1149 19.8588 22.0984Z" fill="white"/>
</svg>
