<svg width="29" height="28" viewBox="0 0 29 28" fill="none" xmlns="http://www.w3.org/2000/svg">
<path fill-rule="evenodd" clip-rule="evenodd" d="M2.5855 7.2491C2.5855 9.63758 4.59743 11.5817 7.07237 11.5817C9.5473 11.5817 11.5592 9.63758 11.5592 7.2491C11.5592 4.85926 9.5473 2.9165 7.07237 2.9165C6.73143 2.9165 6.3933 2.95308 6.065 3.0276C5.49818 3.15359 5.14602 3.70092 5.2779 4.2469C5.40978 4.79288 5.9738 5.13699 6.54203 5.00558C6.71319 4.96764 6.89278 4.94868 7.07237 4.94868C8.387 4.94868 9.4547 5.97967 9.4547 7.2491C9.4547 8.51717 8.387 9.54952 7.07237 9.54952C5.75774 9.54952 4.69003 8.51717 4.69003 7.2491C4.69003 7.11904 4.70126 6.99033 4.7223 6.86705C4.81911 6.31294 4.43047 5.79 3.85804 5.69652C3.27859 5.60846 2.74264 5.97831 2.64723 6.53242C2.60654 6.76544 2.5855 7.00524 2.5855 7.2491ZM16.7572 8.26477H25.3844C25.9653 8.26477 26.4367 7.80957 26.4367 7.24869C26.4367 6.68781 25.9653 6.2326 25.3844 6.2326H16.7572C16.1764 6.2326 15.705 6.68781 15.705 7.24869C15.705 7.80957 16.1764 8.26477 16.7572 8.26477ZM12.266 21.7664H3.63741C3.05656 21.7664 2.58514 21.3112 2.58514 20.7503C2.58514 20.1894 3.05656 19.7342 3.63741 19.7342H12.266C12.8469 19.7342 13.3183 20.1894 13.3183 20.7503C13.3183 21.3112 12.8469 21.7664 12.266 21.7664ZM17.4632 20.7506C17.4632 23.1391 19.4752 25.0832 21.9501 25.0832C24.4236 25.0832 26.437 23.1391 26.437 20.7506C26.437 20.5067 26.4159 20.2669 26.3752 20.0339C26.2798 19.4798 25.7355 19.1059 25.1644 19.198C24.592 19.2915 24.2034 19.8144 24.3002 20.3685C24.3212 20.4918 24.3324 20.6205 24.3324 20.7506C24.3324 22.0187 23.2633 23.051 21.9501 23.051C20.6355 23.051 19.5678 22.0187 19.5678 20.7506C19.5678 19.3077 21.0269 18.1846 22.4861 18.5071C23.0515 18.6331 23.6155 18.2876 23.746 17.7416C23.875 17.1956 23.5187 16.6497 22.9519 16.5264C22.6235 16.4546 22.2868 16.418 21.9501 16.418C19.4752 16.418 17.4632 18.3607 17.4632 20.7506Z" fill="#015294"/>
</svg>
