<svg width="22" height="24" viewBox="0 0 22 24" fill="none" xmlns="http://www.w3.org/2000/svg">
<path fill-rule="evenodd" clip-rule="evenodd" d="M20.3995 11.1943C20.8836 11.9073 21.1614 12.7334 21.2036 13.5862L21.1719 13.8017C21.2084 14.9688 20.8102 16.1095 20.0503 17.0148C19.08 18.0391 17.7534 18.679 16.3259 18.8113C12.8098 19.1889 9.2614 19.1889 5.74524 18.8113C4.33864 18.67 3.03517 18.0304 2.08432 17.0148C1.31193 16.1224 0.901834 14.9872 0.931023 13.8223V13.6786C0.989195 12.8002 1.28878 11.9531 1.79864 11.2251L1.88328 11.1225C2.41353 10.5387 2.77815 9.83119 2.94135 9.06938V8.18655V6.9547C3.09139 6.58385 3.47885 6.35644 3.88706 6.39965C4.29527 6.44285 4.62308 6.74596 4.68717 7.13948V8.16602V9.25416C4.69128 9.29169 4.69128 9.32954 4.68717 9.36708C4.46686 10.4261 3.9633 11.4103 3.22703 12.2209C2.94349 12.6591 2.783 13.1616 2.76148 13.6786V13.9044C2.73799 14.6315 2.98598 15.3424 3.45981 15.9062C4.11673 16.5645 4.99519 16.9724 5.93569 17.0559C9.33968 17.4152 12.7738 17.4152 16.1778 17.0559C17.144 16.9699 18.0439 16.5424 18.7066 15.8548C19.1571 15.3043 19.3932 14.6173 19.3732 13.9147V13.6786C19.3515 13.1599 19.195 12.6549 18.9182 12.2106C18.1513 11.4093 17.6181 10.4243 17.3734 9.35681C17.3693 9.31928 17.3693 9.28143 17.3734 9.24389V8.14549V7.11895C17.0666 4.01879 13.8818 2.09915 11.1096 2.09915C9.93108 2.09652 8.77189 2.39006 7.74499 2.95118C7.46064 3.11702 7.1058 3.11957 6.81896 2.95783C6.53211 2.7961 6.35873 2.49571 6.36648 2.17392C6.37423 1.85212 6.56189 1.55993 6.85621 1.41137C8.12869 0.713913 9.56353 0.342926 11.025 0.333496C14.6859 0.333496 18.7912 2.85879 19.2568 6.91364V8.12496V9.02832C19.4157 9.79156 19.7809 10.5001 20.3148 11.0814C20.3465 11.1165 20.3748 11.1543 20.3995 11.1943ZM11.3666 21.8361C11.9884 21.7455 12.5471 21.4179 12.9189 20.926H12.9295C13.2509 20.5489 13.8265 20.4961 14.2151 20.8079C14.6037 21.1197 14.6582 21.6781 14.3368 22.0552C13.5444 23.0604 12.3187 23.655 11.0144 23.6668C9.7139 23.6519 8.4927 23.0576 7.70266 22.0552C7.38127 21.6781 7.43575 21.1197 7.82434 20.8079C8.21294 20.4961 8.7885 20.5489 9.1099 20.926C9.25104 21.109 9.41851 21.2715 9.60719 21.4084C10.1115 21.7727 10.7448 21.9266 11.3666 21.8361Z" fill="#015294"/>
</svg>
