<svg width="24" height="28" viewBox="0 0 24 28" fill="none" xmlns="http://www.w3.org/2000/svg">
<path d="M21.2277 13.1337C21.2275 13.1321 21.2273 13.1306 21.2271 13.129L23.7934 9.93102C23.9897 9.68658 24.0506 9.3601 23.956 9.06128C23.8613 8.76245 23.6236 8.53064 23.3226 8.44366L19.1039 7.22418C18.6064 7.08044 18.0867 7.367 17.9428 7.8645C17.7991 8.36181 18.0858 8.88165 18.5831 9.02539L21.4509 9.8543L19.7504 11.9732L16.2914 10.9734C15.7941 10.8297 15.2742 11.1163 15.1305 11.6138C14.9867 12.1111 15.2733 12.6309 15.7708 12.7746L17.1227 13.1654L12.1929 14.572C12.1283 14.5748 12.0638 14.5846 12.0003 14.6011C11.9373 14.5848 11.8732 14.5748 11.8091 14.5718L6.89221 13.1612L8.22906 12.7746C8.72638 12.6309 9.01312 12.1111 8.86938 11.6138C8.72546 11.1164 8.20599 10.8299 7.70831 10.9734L4.24928 11.9732L2.54896 9.8543L5.41657 9.02539C5.91407 8.88165 6.20063 8.36181 6.05689 7.8645C5.91315 7.367 5.3935 7.08026 4.896 7.22418L0.677261 8.44366C0.376236 8.53064 0.138382 8.76245 0.0439 9.06128C-0.0507653 9.3601 0.0102087 9.68658 0.206497 9.93102L2.79487 13.1568L0.191117 16.5814C0.00709588 16.8235 -0.0480188 17.1399 0.0431676 17.4299C0.134354 17.7199 0.360489 17.9479 0.649978 18.0411L2.81245 18.7382V22.8077C2.81245 24.4738 3.93141 25.9567 5.53357 26.4138L10.1777 27.7389C10.7876 27.9129 11.4149 27.9998 12.0422 27.9998C12.6728 27.9998 13.3035 27.9119 13.9165 27.736L18.5183 26.4156C20.1426 25.9496 21.2341 24.5141 21.2341 22.8434C21.2341 22.3256 20.8144 21.9059 20.2966 21.9059C19.7788 21.9059 19.3591 22.3256 19.3591 22.8434C19.3591 23.669 18.8135 24.3802 18.0012 24.6133L13.3992 25.9339C13.2467 25.9776 13.0923 26.0133 12.9372 26.0421V18.0803L14.4744 20.206C14.654 20.4543 14.939 20.5942 15.2343 20.5942C15.3295 20.5942 15.4258 20.5795 15.5201 20.5495L23.3482 18.0417C23.6368 17.949 23.8629 17.7227 23.9552 17.4339C24.0475 17.1452 23.9942 16.8297 23.8126 16.5871L21.2277 13.1337ZM4.24195 14.3514L10.1971 16.0599L8.3631 18.5569L2.48487 16.6625L4.24195 14.3514ZM6.04792 24.6107C5.24683 24.3822 4.68745 23.6408 4.68745 22.8077V19.3424L8.43103 20.5489C8.52569 20.5795 8.62256 20.5942 8.7185 20.5942C9.01129 20.5942 9.29419 20.4566 9.47418 20.2116L11.0623 18.0492V26.0256C10.9381 26.0003 10.8147 25.9707 10.692 25.9357L6.04792 24.6107ZM15.5954 18.5564L13.7938 16.065L19.7976 14.3521L21.5232 16.6574L15.5954 18.5564Z" fill="white"/>
<g clip-path="url(#clip0)">
<path d="M8.64896 8.09799L10.3019 6.70792C9.86297 6.08381 9.61083 5.31786 9.61083 4.49517C9.61083 2.37697 11.3198 0.646484 13.4116 0.646484C15.5034 0.646484 17.2124 2.37697 17.2124 4.49517C17.2124 6.61336 15.5034 8.34385 13.4116 8.34385C12.5992 8.34385 11.8427 8.07907 11.2264 7.64409L9.84429 9.31784C9.81628 9.35566 9.76958 9.39349 9.73223 9.43131C9.36803 9.73391 8.83573 9.68663 8.52756 9.31784C8.23806 8.94904 8.28476 8.41004 8.64896 8.09799ZM16.5307 4.49517C16.5307 2.75522 15.1299 1.33679 13.4116 1.33679C11.6933 1.33679 10.2925 2.75522 10.2925 4.49517C10.2925 6.23511 11.6933 7.65354 13.4116 7.65354C15.1299 7.65354 16.5307 6.23511 16.5307 4.49517Z" fill="white" stroke="white" stroke-width="0.5"/>
</g>
<defs>
<clipPath id="clip0">
<rect width="11" height="10" fill="white" transform="matrix(-1 0 0 1 18 0)"/>
</clipPath>
</defs>
</svg>
