<svg width="20" height="24" viewBox="0 0 20 24" fill="none" xmlns="http://www.w3.org/2000/svg">
<path fill-rule="evenodd" clip-rule="evenodd" d="M4.92151 6.57967C4.92151 4.05973 7.03007 2.00995 9.62227 2.00995C12.2145 2.00995 14.323 4.05973 14.323 6.57967C14.323 9.09844 12.2145 11.1482 9.62227 11.1482C7.03007 11.1482 4.92151 9.09844 4.92151 6.57967ZM3.19698 6.57967C3.19698 10.0224 6.0796 12.8247 9.62227 12.8247C13.1649 12.8247 16.0464 10.0224 16.0464 6.57967C16.0464 3.13576 13.1649 0.333496 9.62227 0.333496C6.0796 0.333496 3.19698 3.13576 3.19698 6.57967ZM8.40298 23.6493C8.80261 23.661 9.20944 23.6668 9.62227 23.6668C13.7182 23.6668 19.163 23.2223 19.163 19.3853C19.163 15.0792 11.9817 15.0792 9.62227 15.0792C5.52636 15.0792 0.081543 15.5237 0.081543 19.3619C0.081543 20.5111 0.631185 22.0615 3.24979 22.9237C3.70222 23.0753 4.18946 22.8362 4.34307 22.3987C4.49548 21.9612 4.25426 21.4864 3.80303 21.3382C2.01129 20.7479 1.80487 19.9278 1.80487 19.3619C1.80487 17.6318 4.43548 16.7545 9.62227 16.7545C14.8091 16.7545 17.4397 17.64 17.4397 19.3853C17.4397 21.1142 14.8091 21.9904 9.62227 21.9904C9.22624 21.9904 8.83621 21.9857 8.45218 21.9752C7.99135 21.9787 7.58092 22.3264 7.56772 22.7883C7.55331 23.2515 7.92774 23.6377 8.40298 23.6493Z" fill="#015294"/>
</svg>
