<svg width="24" height="24" viewBox="0 0 24 24" fill="none" xmlns="http://www.w3.org/2000/svg">
<path d="M23.0624 19.3125C23.5802 19.3125 23.9999 18.8928 23.9999 18.375V17.3961C23.9999 15.1703 22.1888 13.3593 19.9628 13.3593H19.3705C19.6905 12.8073 19.8749 12.1672 19.8749 11.4844V4.96874C19.8749 4.45092 19.4552 4.03124 18.9374 4.03124H15.7968V3.65624C15.7968 1.64007 14.1565 0 12.1405 0C10.1246 0 8.48431 1.64007 8.48431 3.65624V4.03124H5.06244C4.54462 4.03124 4.12494 4.45092 4.12494 4.96874V11.293C3.71698 11.0771 3.25958 10.9643 2.78607 10.9689C2.03479 10.9759 1.3313 11.2751 0.805061 11.8114C0.279 12.3475 -0.00701056 13.0565 0.000130564 13.8078C0.00708857 14.5589 0.306282 15.2624 0.842597 15.7886C0.849006 15.795 0.855598 15.8012 0.862189 15.8075L5.63684 20.228C6.88104 21.4308 8.32537 22.37 9.92955 23.0192C11.5372 23.67 13.2319 24 14.966 24H23.0624C23.5802 24 23.9999 23.5803 23.9999 23.0625C23.9999 22.5446 23.5802 22.125 23.0624 22.125H14.966C11.9516 22.125 9.09881 20.9703 6.93322 18.8736C6.92828 18.8686 6.92315 18.8639 6.91803 18.8591L2.14777 14.4422C1.974 14.2677 1.87732 14.0367 1.87494 13.79C1.87256 13.5397 1.96796 13.3033 2.14338 13.1246C2.31879 12.9459 2.55317 12.8461 2.80365 12.8437H2.81263C3.05963 12.8437 3.29236 12.9388 3.46906 13.1122C3.47693 13.1198 3.48499 13.1275 3.49323 13.135L8.90472 18.0798C9.41869 18.6355 10.1537 18.9843 10.9687 18.9843H15.6562C16.1738 18.9843 16.5937 18.5647 16.5937 18.0468C16.5937 17.529 16.1738 17.1093 15.6562 17.1093H10.9687C10.7751 17.1093 10.5951 17.0504 10.4455 16.9495C10.4399 16.944 10.4349 16.9381 10.4291 16.9328L10.2388 16.7591C10.1092 16.5981 10.0312 16.3941 10.0312 16.1718C10.0312 15.6549 10.4518 15.2343 10.9687 15.2343H19.9628C21.155 15.2343 22.1249 16.2041 22.1249 17.3961V18.375C22.1249 18.8928 22.5446 19.3125 23.0624 19.3125ZM10.3593 3.65624C10.3593 2.67407 11.1584 1.875 12.1405 1.875C13.1227 1.875 13.9218 2.67407 13.9218 3.65624V4.03124H10.3593V3.65624ZM5.99994 5.90624H8.48431V6.89061C8.48431 7.40843 8.90398 7.82811 9.4218 7.82811C9.93963 7.82811 10.3593 7.40843 10.3593 6.89061V5.90624H13.9218V6.89061C13.9218 7.40843 14.3415 7.82811 14.8593 7.82811C15.3771 7.82811 15.7968 7.40843 15.7968 6.89061V5.90624H17.9999V11.4844C17.9999 12.5182 17.1587 13.3593 16.1249 13.3593H7.87493C6.80596 13.3593 5.99994 12.6137 5.99994 11.625V5.90624Z" fill="white"/>
</svg>
