<svg width="25" height="24" viewBox="0 0 25 24" fill="none" xmlns="http://www.w3.org/2000/svg">
<path d="M24.1507 22.0411L20.0512 18.1203L19.9552 17.9773C19.7765 17.8034 19.5322 17.7053 19.2773 17.7053C19.0223 17.7053 18.778 17.8034 18.5994 17.9773C15.1155 21.1041 9.74724 21.274 6.0548 18.3745C2.36236 15.475 1.49154 10.4058 4.01985 6.52869C6.54817 2.65163 11.6911 1.16982 16.0378 3.06599C20.3845 4.96216 22.5863 9.64792 21.1829 14.0157C21.0818 14.3312 21.1644 14.6744 21.3996 14.9159C21.6347 15.1573 21.9868 15.2605 22.323 15.1864C22.6593 15.1124 22.9287 14.8724 23.0297 14.5568C24.7074 9.37358 22.1736 3.79564 17.0673 1.4314C11.9611 -0.932849 5.81489 0.626124 2.60469 5.09982C-0.605516 9.57351 0.0836937 15.6193 4.22647 19.3262C8.36924 23.0332 14.7223 23.2887 19.1758 19.9275L22.8055 23.3991C23.1804 23.7561 23.7865 23.7561 24.1613 23.3991C24.5358 23.0371 24.5358 22.4542 24.1613 22.0922L24.1507 22.0411Z" fill="#F89B32"/>
</svg>
