<svg width="24" height="24" viewBox="0 0 24 24" fill="none" xmlns="http://www.w3.org/2000/svg">
<g clip-path="url(#clip0)">
<path d="M23.7713 9.93336C23.5933 9.72758 23.3346 9.60936 23.0625 9.60936H21.7987L19.6101 2.03372C19.2643 0.836295 18.1501 0 16.9008 0H7.09911C5.84984 0 4.73567 0.836295 4.38978 2.03372L2.20124 9.60936H0.937492C0.665149 9.60936 0.406306 9.72776 0.228228 9.93378C0.0501036 10.1398 -0.0295369 10.4131 0.00988492 10.6826L1.49418 20.8273C1.49577 20.8383 1.4976 20.8493 1.49962 20.8603C1.66354 21.7561 2.19983 22.5716 3.00974 23.1568C3.76217 23.7005 4.68228 24 5.60047 24H18.412C20.1258 24 21.7364 22.9675 22.3288 21.4893C22.5214 21.0087 22.2879 20.463 21.8073 20.2704C21.3267 20.0777 20.781 20.3113 20.5884 20.7919C20.2838 21.5519 19.3482 22.125 18.412 22.125H17.2552L17.5114 19.9219H18.7968C19.3146 19.9219 19.7343 19.5022 19.7343 18.9844C19.7343 18.4666 19.3146 18.0469 18.7968 18.0469H17.7294L18.0019 15.7031H21.3671L21.3526 15.8029C21.2783 16.3153 21.6334 16.791 22.1459 16.8653C22.6582 16.9396 23.1339 16.5845 23.2082 16.0721L23.9903 10.6815C24.0293 10.4121 23.9494 10.1391 23.7713 9.93336ZM2.36507 13.8281L2.02218 11.4844H5.50751L5.78005 13.8281H2.36507ZM2.98232 18.0468L2.63938 15.7031H5.99801L6.27055 18.0468H2.98232ZM5.60047 22.125C4.52375 22.125 3.5165 21.414 3.34663 20.5371L3.25663 19.9218H6.48856L6.74473 22.125H5.60047ZM11.0625 22.125H8.63238L8.37621 19.9218H11.0625V22.125ZM11.0625 18.0468H8.1582L7.88567 15.7031H11.0625V18.0468ZM11.0625 13.8281H7.66765L7.39512 11.4844H11.0625V13.8281ZM15.3676 22.125H12.9375V19.9218H15.6237L15.3676 22.125ZM15.8417 18.0468H12.9375V15.7031H16.1143L15.8417 18.0468ZM16.3323 13.8281H12.9375V11.4844H16.6048L16.3323 13.8281ZM4.15288 9.60936L6.19109 2.55412C6.30664 2.15428 6.68004 1.875 7.09911 1.875H16.9008C17.3199 1.875 17.6933 2.15428 17.8089 2.55412L19.8471 9.60936H4.15288ZM21.6391 13.8281H18.2199L18.4925 11.4844H21.1005H21.9792L21.6391 13.8281Z" fill="white"/>
</g>
<defs>
<clipPath id="clip0">
<rect width="24" height="24" fill="white"/>
</clipPath>
</defs>
</svg>
