<svg width="14" height="14" viewBox="0 0 14 14" fill="none" xmlns="http://www.w3.org/2000/svg">
<path opacity="0.4" d="M9.37729 1.16666H11.3524C12.1704 1.16666 12.8332 1.83507 12.8332 2.65997V4.6518C12.8332 5.47669 12.1704 6.14511 11.3524 6.14511H9.37729C8.5593 6.14511 7.89648 5.47669 7.89648 4.6518V2.65997C7.89648 1.83507 8.5593 1.16666 9.37729 1.16666Z" fill="#015294"/>
<path fill-rule="evenodd" clip-rule="evenodd" d="M2.6478 1.16666H4.62295C5.44094 1.16666 6.10375 1.83507 6.10375 2.65997V4.6518C6.10375 5.47669 5.44094 6.14511 4.62295 6.14511H2.6478C1.82981 6.14511 1.16699 5.47669 1.16699 4.6518V2.65997C1.16699 1.83507 1.82981 1.16666 2.6478 1.16666ZM2.6478 7.85487H4.62295C5.44094 7.85487 6.10375 8.52329 6.10375 9.34819V11.34C6.10375 12.1644 5.44094 12.8333 4.62295 12.8333H2.6478C1.82981 12.8333 1.16699 12.1644 1.16699 11.34V9.34819C1.16699 8.52329 1.82981 7.85487 2.6478 7.85487ZM11.3528 7.85487H9.37766C8.55966 7.85487 7.89685 8.52329 7.89685 9.34819V11.34C7.89685 12.1644 8.55966 12.8333 9.37766 12.8333H11.3528C12.1708 12.8333 12.8336 12.1644 12.8336 11.34V9.34819C12.8336 8.52329 12.1708 7.85487 11.3528 7.85487Z" fill="#015294"/>
</svg>
