<svg width="24" height="24" viewBox="0 0 24 24" fill="none" xmlns="http://www.w3.org/2000/svg">
<g clip-path="url(#clip0)">
<path d="M7.55236 2.16466L7.24177 1.00555L0.287109 2.86905L0.908275 5.18727L5.54472 3.94494L9.76865 19.7088L12.0869 19.0877L7.55236 2.16466ZM11.4657 16.7695L23.0568 13.6636L23.678 15.9819L12.0869 19.0877L11.4657 16.7695Z" fill="#49A0B5"/>
<path d="M19.1686 7.49986L10.3594 9.86029L11.9744 15.8877L20.7837 13.5272L19.1686 7.49986Z" fill="#49A0B5"/>
<path d="M17.3678 0.777052L8.55859 3.13748L10.1736 9.16486L18.9829 6.80443L17.3678 0.777052Z" fill="#49A0B5"/>
<path d="M10.7633 23.4179C12.8118 22.869 14.0275 20.7634 13.4786 18.7149C12.9297 16.6664 10.8241 15.4507 8.77556 15.9996C6.72705 16.5485 5.51137 18.6541 6.06027 20.7027C6.60917 22.7512 8.71478 23.9668 10.7633 23.4179Z" fill="#49A0B5"/>
</g>
<defs>
<clipPath id="clip0">
<rect width="24" height="24" fill="white"/>
</clipPath>
</defs>
</svg>
