<svg width="28" height="24" viewBox="0 0 28 24" fill="none" xmlns="http://www.w3.org/2000/svg">
<path fill-rule="evenodd" clip-rule="evenodd" d="M7.90988 1.25C5.98176 1.25 4.30838 1.87513 3.11201 3.02244C1.91291 4.17236 1.24988 5.79295 1.24988 7.67V16.34C1.24988 18.2167 1.91306 19.8352 3.11266 20.9828C4.30931 22.1276 5.98259 22.75 7.90988 22.75H16.0799C18.0116 22.75 19.6874 22.128 20.8855 20.9831C22.0867 19.8354 22.7499 18.2168 22.7499 16.34V7.67C22.7499 5.79291 22.0868 4.17214 20.8862 3.02212C19.6883 1.87479 18.0125 1.25 16.0799 1.25H7.90988ZM2.74988 7.67C2.74988 6.15705 3.27685 4.94264 4.15024 4.10506C5.02637 3.26487 6.30799 2.75 7.90988 2.75H16.0799C17.6873 2.75 18.9714 3.26521 19.8486 4.10538C20.7229 4.94286 21.2499 6.15709 21.2499 7.67V16.34C21.2499 17.8522 20.7231 19.0636 19.8492 19.8986C18.9724 20.7365 17.6881 21.25 16.0799 21.25H7.90988C6.30717 21.25 5.02544 20.7369 4.14959 19.8989C3.27669 19.0638 2.74988 17.8523 2.74988 16.34V7.67ZM14.2699 11.25H7.91988C7.49988 11.25 7.16988 11.59 7.16988 12C7.16988 12.42 7.49988 12.75 7.91988 12.75H14.2699L11.7899 15.22C11.6499 15.36 11.5699 15.56 11.5699 15.75C11.5699 15.939 11.6499 16.13 11.7899 16.28C12.0799 16.57 12.5599 16.57 12.8499 16.28L16.6199 12.53C16.8999 12.25 16.8999 11.75 16.6199 11.47L12.8499 7.72C12.5599 7.43 12.0799 7.43 11.7899 7.72C11.4999 8.02 11.4999 8.49 11.7899 8.79L14.2699 11.25Z" fill="#015294"/>
<rect x="20" y="14" width="3" height="7" fill="white"/>
<path d="M27.8559 21.0048L22.7008 11.481C22.5884 11.2761 22.4166 11.1041 22.2047 10.9839C21.9927 10.8636 21.7488 10.8 21.5 10.8C21.2512 10.8 21.0073 10.8636 20.7953 10.9839C20.5834 11.1041 20.4116 11.2761 20.2992 11.481L15.1441 21.0048C15.041 21.1931 14.9917 21.4027 15.0011 21.6135C15.0106 21.8243 15.0783 22.0294 15.1979 22.2092C15.3176 22.389 15.4851 22.5375 15.6845 22.6406C15.884 22.7437 16.1087 22.7979 16.3373 22.7981H26.6627C26.8913 22.7979 27.116 22.7437 27.3155 22.6406C27.5149 22.5375 27.6824 22.389 27.8021 22.2092C27.9217 22.0294 27.9894 21.8243 27.9989 21.6135C28.0083 21.4027 27.959 21.1931 27.8559 21.0048ZM21.5 20.8566C21.3487 20.8566 21.2009 20.8152 21.0751 20.7376C20.9493 20.66 20.8513 20.5498 20.7934 20.4208C20.7355 20.2918 20.7203 20.1498 20.7499 20.0129C20.7794 19.8759 20.8522 19.7501 20.9592 19.6514C21.0661 19.5526 21.2024 19.4854 21.3508 19.4582C21.4992 19.4309 21.6529 19.4449 21.7927 19.4983C21.9325 19.5518 22.0519 19.6423 22.1359 19.7584C22.22 19.8745 22.2648 20.011 22.2648 20.1506C22.2648 20.3378 22.1843 20.5174 22.0408 20.6498C21.8974 20.7822 21.7028 20.8566 21.5 20.8566ZM22.2648 17.3266C22.2648 17.5139 22.1843 17.6934 22.0408 17.8258C21.8974 17.9582 21.7028 18.0326 21.5 18.0326C21.2972 18.0326 21.1026 17.9582 20.9592 17.8258C20.8157 17.6934 20.7352 17.5139 20.7352 17.3266V15.2086C20.7352 15.0214 20.8157 14.8418 20.9592 14.7094C21.1026 14.577 21.2972 14.5026 21.5 14.5026C21.7028 14.5026 21.8974 14.577 22.0408 14.7094C22.1843 14.8418 22.2648 15.0214 22.2648 15.2086V17.3266Z" fill="#015294"/>
</svg>
