<svg width="24" height="24" viewBox="0 0 24 24" fill="none" xmlns="http://www.w3.org/2000/svg">
<path d="M16.2933 4C16.5409 4 16.7797 4.09187 16.9635 4.25784L19.6702 6.70219C19.7646 6.78742 19.8408 6.88884 19.896 7.00036L20 7V19C20 19.5523 19.5523 20 19 20H5C4.44772 20 4 19.5523 4 19V7L4.10349 7.00032C4.15854 6.88891 4.23445 6.78756 4.32853 6.70231L7.02499 4.25897C7.20892 4.09231 7.44826 4 7.69646 4H16.2933ZM19 8H5V19H19V8ZM11.5 5H7.69646L5.489 7H11.5V5ZM16.2933 5H12.5V7H18.508L16.2933 5Z" fill="#015294"/>
<path fill-rule="evenodd" clip-rule="evenodd" d="M13 10V13.118H15L12 16L9 13.118H11V10H13Z" fill="#015294"/>
</svg>
