<svg width="18" height="18" viewBox="0 0 18 18" fill="none" xmlns="http://www.w3.org/2000/svg">
<path d="M11.6008 14.0566H6.40079C6.06945 14.0566 5.80078 14.3253 5.80078 14.6567C5.80078 14.988 6.06941 15.2567 6.40079 15.2567H11.6008C11.9321 15.2567 12.2008 14.988 12.2008 14.6567C12.2008 14.3253 11.9322 14.0566 11.6008 14.0566Z" fill="#015294"/>
<path d="M11.6008 12.1646H6.40079C6.06945 12.1646 5.80078 12.4332 5.80078 12.7646C5.80078 13.0959 6.06941 13.3646 6.40079 13.3646H11.6008C11.9321 13.3646 12.2008 13.0959 12.2008 12.7646C12.2008 12.4332 11.9322 12.1646 11.6008 12.1646Z" fill="#015294"/>
<path d="M16.6 4.70782H14.6909V1.23527C14.6909 0.903918 14.4223 0.635254 14.0909 0.635254H3.90909C3.57775 0.635254 3.30908 0.903883 3.30908 1.23527V4.70782H1.39999C0.628031 4.70782 0 5.33589 0 6.10785V12.1443C0 12.9162 0.628031 13.5442 1.39999 13.5442H3.30919V16.765C3.30919 17.0964 3.57782 17.3651 3.9092 17.3651H14.0908C14.4221 17.3651 14.6908 17.0964 14.6908 16.765V13.5442H16.6C17.372 13.5442 18 12.9162 18 12.1443V6.10785C18 5.33593 17.372 4.70782 16.6 4.70782ZM4.50907 1.83528H13.4909V4.70782H4.50907V1.83528ZM13.4908 16.165H4.50921C4.50921 16.0478 4.50921 11.4013 4.50921 11.2562H13.4908C13.4908 11.4049 13.4908 16.0523 13.4908 16.165ZM14.0909 8.23101H12.5636C12.2323 8.23101 11.9636 7.96238 11.9636 7.631C11.9636 7.29961 12.2322 7.03098 12.5636 7.03098H14.0909C14.4223 7.03098 14.6909 7.29961 14.6909 7.631C14.6909 7.96238 14.4223 8.23101 14.0909 8.23101Z" fill="#015294"/>
</svg>
